<?xml version="1.0" standalone="no"?>
<!DOCTYPE svg PUBLIC "-//W3C//DTD SVG 20010904//EN"
 "http://www.w3.org/TR/2001/REC-SVG-20010904/DTD/svg10.dtd">
<svg version="1.0" xmlns="http://www.w3.org/2000/svg"
 width="16.000000pt" height="16.000000pt" viewBox="0 0 16.000000 16.000000"
 preserveAspectRatio="xMidYMid meet">
<metadata>
Created by potrace 1.11, written by Peter Selinger 2001-2013
</metadata>
<g transform="translate(0.000000,16.000000) scale(0.000384,-0.000384)"
fill="#000000" stroke="none">
<path d="M20740 40970 c-41 -9 -101 -26 -133 -38 -52 -20 -264 -126 -387 -195
-25 -13 -106 -56 -180 -94 -74 -39 -175 -92 -225 -118 -181 -97 -351 -186
-395 -208 -25 -12 -47 -24 -50 -27 -3 -3 -41 -23 -85 -46 -44 -22 -123 -63
-175 -91 -52 -28 -151 -80 -220 -116 -69 -35 -161 -84 -205 -107 -44 -24 -122
-65 -172 -91 -51 -27 -137 -72 -190 -101 -54 -28 -150 -78 -213 -111 -63 -32
-133 -69 -155 -82 -22 -12 -101 -54 -175 -93 -74 -38 -171 -89 -215 -112 -44
-23 -132 -70 -195 -103 -63 -33 -137 -72 -165 -87 -44 -24 -153 -81 -355 -187
-36 -19 -72 -38 -80 -43 -8 -5 -22 -11 -30 -14 -8 -4 -44 -22 -80 -42 -36 -19
-103 -56 -150 -80 -47 -25 -92 -48 -100 -53 -8 -4 -25 -13 -38 -20 -130 -67
-279 -146 -382 -201 -69 -36 -163 -86 -210 -110 -47 -24 -101 -52 -120 -63
-19 -11 -89 -48 -155 -82 -66 -35 -151 -80 -190 -100 -38 -21 -126 -67 -195
-103 -69 -35 -154 -80 -190 -100 -36 -19 -108 -57 -160 -84 -52 -28 -140 -74
-195 -103 -55 -29 -154 -81 -220 -115 -66 -35 -147 -77 -180 -95 -119 -64
-233 -124 -368 -194 -76 -40 -157 -82 -180 -95 -23 -13 -98 -53 -167 -88 -69
-36 -159 -83 -200 -105 -41 -22 -142 -75 -225 -118 -82 -43 -163 -85 -180 -95
-16 -10 -82 -45 -145 -78 -279 -145 -530 -277 -595 -312 -27 -15 -106 -57
-175 -92 -69 -36 -154 -81 -190 -100 -36 -20 -119 -64 -185 -98 -66 -35 -147
-78 -180 -95 -33 -18 -123 -65 -200 -105 -77 -40 -169 -89 -205 -108 -36 -19
-114 -61 -175 -92 -60 -32 -146 -77 -190 -100 -44 -24 -123 -65 -175 -93 -52
-27 -138 -72 -190 -99 -52 -28 -147 -77 -210 -110 -63 -34 -142 -75 -175 -93
-33 -18 -118 -63 -190 -100 -71 -37 -164 -86 -205 -108 -41 -22 -122 -64 -180
-95 -58 -30 -143 -75 -190 -100 -47 -24 -134 -70 -195 -102 -112 -58 -278
-147 -350 -186 -22 -13 -57 -32 -77 -43 -72 -40 -196 -159 -256 -247 -190
-278 -209 -638 -50 -934 22 -41 43 -77 46 -80 4 -3 13 -17 21 -32 18 -35 122
-140 187 -190 94 -71 224 -130 342 -153 12 -3 34 -8 50 -12 15 -4 311 -8 657
-10 347 -2 671 -4 720 -6 l90 -2 0 -7202 0 -7203 -40 -1 c-22 0 -338 0 -702 0
-652 -1 -663 -1 -765 -24 -125 -27 -208 -60 -281 -109 -21 -14 -42 -26 -48
-26 -5 0 -12 -7 -15 -15 -4 -8 -10 -15 -15 -15 -20 0 -145 -130 -191 -199 -83
-122 -131 -243 -154 -391 -4 -25 -8 -680 -8 -1457 -1 -776 -4 -1414 -7 -1417
-3 -3 -1002 -6 -2220 -6 -2345 -1 -2265 1 -2409 -46 -30 -9 -64 -23 -75 -31
-11 -7 -27 -13 -37 -13 -10 0 -18 -4 -18 -9 0 -5 -10 -13 -22 -17 -13 -3 -51
-26 -86 -51 -199 -141 -335 -366 -370 -613 -9 -62 -8 -1665 1 -1720 36 -223
157 -431 332 -570 34 -27 65 -50 68 -50 2 0 30 -15 61 -34 47 -28 125 -58 246
-94 14 -4 1927 -8 4251 -9 l4227 -3 0 -3613 c0 -1986 3 -3632 6 -3657 11 -79
17 -104 38 -165 29 -90 74 -176 108 -212 16 -18 30 -35 30 -38 0 -17 132 -142
195 -184 63 -43 174 -102 200 -107 6 -1 35 -9 65 -18 157 -47 352 -41 515 16
33 11 110 44 170 74 61 29 208 100 327 158 119 58 234 110 256 115 21 6 84 33
138 60 54 27 149 72 209 101 61 29 180 86 265 127 85 42 196 95 245 118 50 24
188 90 308 149 120 58 220 106 222 106 2 0 46 21 97 46 51 25 140 66 198 91
58 25 128 56 155 68 79 35 364 155 370 155 2 0 55 20 117 44 123 48 260 100
268 102 3 0 12 4 20 7 8 4 143 49 300 101 251 83 359 116 555 172 28 7 91 25
140 39 50 15 100 28 113 31 12 2 100 24 195 48 155 39 252 60 259 56 2 -1 16
4 33 10 16 6 48 13 70 16 22 3 47 7 55 10 20 7 238 52 284 59 21 3 41 7 45 9
3 2 29 7 56 10 28 4 84 13 125 21 41 8 93 16 115 19 22 3 50 7 62 10 22 5 91
15 133 20 14 2 61 9 105 15 82 11 114 15 225 26 36 4 73 9 82 10 9 2 48 6 85
10 37 3 86 8 108 10 172 18 216 22 375 31 63 3 126 8 140 10 164 22 1245 22
1485 -1 22 -2 83 -6 135 -10 144 -8 231 -15 270 -21 19 -3 64 -7 100 -10 103
-7 163 -13 185 -18 11 -2 49 -7 85 -10 36 -4 81 -9 100 -11 19 -2 59 -7 89
-10 30 -4 63 -8 74 -11 11 -2 55 -8 97 -14 42 -6 87 -13 101 -15 13 -3 40 -8
59 -11 19 -3 60 -9 90 -14 30 -5 71 -12 90 -15 78 -13 217 -39 340 -65 58 -12
116 -23 130 -26 20 -3 67 -14 130 -29 3 -1 23 -5 45 -9 22 -4 58 -11 80 -17
22 -5 49 -12 60 -14 46 -9 402 -103 500 -132 28 -8 66 -18 85 -23 55 -13 73
-18 105 -29 17 -6 98 -31 180 -56 83 -26 161 -51 175 -57 14 -6 39 -14 55 -18
136 -36 765 -274 990 -375 17 -7 84 -37 150 -65 159 -69 314 -141 615 -288 96
-46 222 -107 280 -134 58 -28 159 -76 225 -108 66 -32 190 -91 275 -132 85
-42 198 -96 250 -122 53 -25 104 -46 114 -46 10 0 35 -9 55 -20 36 -19 281
-138 518 -251 205 -98 300 -123 458 -123 102 0 185 12 249 34 28 9 54 18 59
18 21 4 130 62 192 103 111 74 248 228 292 329 27 60 52 130 59 164 2 11 9 48
15 81 9 44 12 1028 12 3678 l0 3617 1959 0 1958 0 0 -1904 0 -1904 -52 -18
c-51 -17 -203 -83 -242 -105 -10 -6 -33 -19 -51 -29 -87 -49 -74 -40 -173
-116 -278 -210 -480 -489 -587 -809 -35 -107 -44 -141 -61 -250 -3 -22 -10
-60 -14 -85 -9 -48 -7 -391 3 -426 3 -12 8 -39 12 -60 3 -22 8 -52 11 -69 6
-40 41 -161 58 -205 7 -19 19 -51 26 -70 21 -55 100 -210 138 -270 34 -54 110
-155 162 -214 71 -83 279 -267 320 -284 8 -3 40 -22 70 -41 67 -43 181 -101
198 -101 21 0 11 -36 -28 -95 -11 -16 -23 -37 -27 -45 -4 -8 -32 -58 -63 -110
-30 -52 -66 -115 -79 -140 -13 -25 -37 -64 -53 -88 -15 -24 -28 -45 -28 -47 0
-6 -53 -94 -96 -162 -33 -50 -113 -185 -162 -273 -13 -25 -48 -85 -77 -135
-29 -49 -62 -106 -73 -125 -11 -19 -52 -91 -92 -160 -40 -69 -88 -154 -108
-190 -19 -36 -39 -66 -44 -68 -4 -2 -8 -7 -8 -12 0 -4 -16 -37 -36 -72 -20
-34 -50 -88 -67 -118 -16 -30 -36 -61 -44 -68 -7 -7 -13 -17 -13 -22 0 -4 -22
-46 -50 -93 -27 -47 -50 -88 -50 -91 0 -3 -12 -22 -26 -43 -14 -21 -30 -47
-35 -58 -6 -11 -15 -29 -22 -40 -7 -11 -27 -47 -46 -80 -39 -68 -117 -203
-131 -225 -22 -35 -41 -79 -64 -147 -22 -64 -24 -87 -22 -195 2 -68 6 -132 9
-143 14 -54 51 -137 83 -191 34 -56 148 -177 189 -200 110 -61 121 -65 235
-96 71 -18 3288 -19 3390 0 217 40 402 190 484 394 35 90 47 156 45 258 -3
148 -28 214 -179 476 -44 76 -84 146 -90 154 -6 8 -13 22 -17 30 -3 8 -21 39
-40 68 -18 29 -33 54 -33 57 0 2 -22 42 -49 87 -27 46 -58 99 -69 118 -105
186 -164 287 -172 300 -5 8 -25 42 -43 75 -19 33 -64 111 -101 174 -36 62 -66
116 -66 118 0 3 -13 25 -30 50 -16 24 -30 45 -30 47 0 2 -22 42 -50 90 -27 48
-50 89 -50 92 0 3 -13 25 -30 49 -16 24 -30 46 -30 48 0 12 -124 214 -150 244
-5 7 -10 15 -10 18 0 4 -16 34 -37 68 -37 63 -125 216 -171 297 -14 25 -36 62
-49 82 -12 21 -23 40 -23 44 0 3 -9 17 -20 31 -24 30 -26 63 -5 63 15 0 138
62 188 95 16 10 42 26 57 34 37 21 69 44 149 111 119 99 213 201 322 350 25
34 129 215 129 224 0 3 13 33 28 68 16 35 34 77 40 93 18 47 60 215 67 265 3
25 9 54 12 65 8 27 11 87 12 230 2 172 -10 269 -51 429 -11 44 -21 85 -23 90
-2 12 -6 22 -43 111 -37 91 -73 164 -109 222 -18 29 -33 55 -33 58 0 18 -156
209 -233 286 -77 77 -265 229 -283 229 -3 0 -18 9 -34 20 -44 31 -218 115
-290 140 -36 12 -69 26 -75 31 -10 10 -15 3783 -5 3800 4 5 698 10 1605 11
1534 3 1602 4 1655 22 141 48 244 98 310 151 44 35 166 159 192 195 52 70 127
237 142 312 2 13 9 43 15 68 7 31 10 319 8 900 -3 848 -3 856 -25 935 -32 116
-100 249 -172 339 -62 77 -189 188 -240 209 -14 6 -36 19 -50 28 -26 17 -176
71 -240 85 -19 5 -807 10 -1750 11 -943 2 -1875 4 -2070 6 l-355 2 -1 1440
c-1 792 -4 1447 -6 1455 -3 8 -10 42 -17 75 -21 96 -120 298 -153 313 -5 2 -8
9 -8 15 0 16 -82 102 -145 153 -124 100 -231 149 -394 183 -88 18 -142 19
-784 19 -379 0 -691 3 -694 5 -6 6 -7 14396 -1 14402 2 2 323 6 713 8 391 2
726 7 745 11 172 36 312 101 425 196 54 45 135 134 135 147 0 7 4 13 8 13 9 0
65 90 92 148 25 53 56 147 70 217 14 64 17 243 7 312 -7 46 -35 151 -45 168
-4 6 -7 15 -8 22 -5 33 -98 193 -116 201 -5 2 -8 8 -8 14 0 27 -218 218 -248
218 -6 0 -12 3 -14 8 -1 4 -19 15 -38 24 -19 10 -78 40 -130 69 -52 28 -167
88 -255 133 -88 46 -176 92 -195 103 -19 11 -93 50 -165 88 -71 37 -152 80
-180 95 -27 15 -117 63 -200 106 -82 43 -190 99 -240 125 -49 26 -129 68 -177
93 -47 24 -110 58 -140 74 -29 16 -120 64 -203 107 -82 43 -177 92 -210 110
-33 18 -107 57 -165 87 -58 30 -134 71 -170 90 -36 19 -131 69 -211 111 -80
41 -163 85 -185 97 -21 13 -93 51 -159 85 -66 35 -154 81 -195 102 -41 22
-124 66 -185 98 -60 31 -189 100 -286 151 -97 52 -179 94 -182 94 -3 0 -36 17
-74 39 -37 21 -131 71 -208 111 -77 40 -167 87 -200 105 -33 18 -118 63 -190
100 -71 37 -152 80 -180 95 -27 15 -104 56 -170 90 -66 35 -156 82 -200 105
-44 24 -134 71 -200 105 -66 35 -158 83 -205 108 -130 68 -249 131 -315 165
-33 17 -68 37 -77 45 -10 9 -18 12 -18 9 0 -4 -21 6 -47 21 -27 16 -68 38 -93
51 -49 24 -163 84 -335 175 -60 33 -155 82 -210 111 -55 29 -134 70 -175 92
-41 22 -138 73 -215 114 -77 40 -167 88 -200 106 -33 17 -91 48 -130 67 -38
20 -122 63 -185 97 -106 57 -199 106 -433 228 -48 25 -100 52 -115 59 -15 7
-34 17 -42 22 -8 5 -46 26 -85 46 -38 20 -94 50 -124 66 -29 16 -99 53 -155
82 -55 29 -148 78 -206 108 -58 31 -152 80 -210 110 -58 31 -122 65 -143 77
-20 11 -104 55 -185 97 -81 42 -178 94 -217 114 -38 21 -122 65 -185 98 -63
33 -140 73 -170 89 -30 17 -127 67 -215 113 -88 46 -175 91 -192 101 -18 10
-104 55 -190 100 -87 45 -178 93 -203 107 -25 14 -97 52 -160 85 -63 32 -142
74 -175 92 -59 32 -240 127 -400 209 -44 22 -82 43 -85 46 -3 3 -59 33 -126
67 -66 34 -163 85 -215 113 -207 113 -376 191 -459 212 -114 28 -296 32 -400
8z m225 -1004 c11 -7 88 -48 170 -91 83 -43 179 -94 215 -113 70 -37 193 -102
360 -190 58 -30 132 -69 165 -87 33 -18 114 -61 180 -95 66 -35 152 -80 190
-100 39 -21 122 -64 185 -97 63 -33 149 -78 190 -100 41 -22 125 -66 185 -98
61 -32 146 -77 190 -100 44 -23 139 -73 210 -110 72 -38 184 -97 250 -132 66
-35 149 -78 185 -96 36 -17 67 -34 70 -38 3 -3 52 -29 110 -59 58 -29 128 -65
155 -80 49 -27 134 -72 350 -185 61 -32 148 -78 195 -103 47 -24 137 -71 200
-104 63 -34 135 -72 160 -86 25 -13 97 -52 160 -85 344 -179 458 -239 575
-302 39 -21 133 -70 210 -110 77 -40 174 -91 215 -114 41 -22 116 -61 165 -87
50 -25 131 -67 180 -94 50 -27 133 -70 185 -98 52 -27 124 -65 160 -84 36 -19
137 -72 225 -118 88 -46 195 -103 238 -126 42 -24 114 -61 160 -84 45 -23 110
-57 145 -76 35 -19 116 -61 180 -95 261 -137 309 -163 357 -189 28 -15 109
-58 180 -95 72 -37 162 -84 200 -105 39 -20 129 -68 200 -105 72 -37 155 -81
185 -98 30 -16 66 -35 80 -42 57 -28 108 -55 165 -85 85 -46 193 -104 315
-167 99 -52 210 -111 395 -208 44 -23 130 -68 190 -100 118 -62 249 -131 330
-175 28 -15 127 -67 220 -115 94 -49 205 -108 249 -132 43 -24 84 -43 91 -43
7 0 18 -7 25 -15 7 -8 16 -15 20 -15 3 0 56 -26 116 -58 60 -32 168 -89 239
-127 72 -37 159 -83 195 -103 36 -19 130 -68 210 -110 80 -41 159 -83 175 -92
17 -10 93 -50 170 -90 77 -40 165 -86 195 -103 30 -16 111 -59 180 -94 69 -36
129 -69 133 -73 5 -4 -5203 -8 -11573 -8 -6370 0 -11578 4 -11573 8 4 4 64 37
133 73 69 35 145 76 170 89 25 14 117 62 205 108 88 45 165 86 170 90 6 4 82
45 170 90 88 45 192 99 230 120 39 21 124 66 190 100 66 34 143 75 170 90 28
15 109 58 180 95 72 37 162 84 200 105 39 21 115 61 170 90 111 58 249 131
370 195 78 41 130 69 415 218 74 39 176 92 225 119 50 26 131 69 180 94 50 25
104 54 121 64 16 9 79 43 140 74 60 31 154 81 209 109 55 29 161 85 235 124
74 39 155 81 180 94 25 13 47 25 50 28 3 4 53 31 113 61 107 55 140 72 352
184 61 32 180 94 265 138 85 44 160 84 165 88 6 4 84 46 175 93 175 90 244
127 298 159 17 11 32 17 32 14 0 -3 30 12 68 33 37 21 119 65 182 98 102 54
184 97 370 195 30 16 100 53 155 82 55 28 151 79 213 111 62 33 147 78 190
100 42 22 122 65 177 94 55 30 150 80 210 111 61 32 144 75 185 97 41 22 143
75 225 118 83 43 164 86 180 96 17 10 75 41 130 68 120 61 282 147 312 167 12
8 29 14 38 14 9 0 18 7 21 15 4 8 12 15 20 15 12 0 58 23 199 100 28 15 113
60 190 100 77 40 183 95 235 123 52 28 133 70 180 95 47 24 119 62 160 85 41
22 125 66 185 97 61 31 146 76 190 100 44 23 121 64 170 90 50 26 144 76 210
111 127 67 290 152 365 190 25 13 79 42 120 64 41 23 156 84 255 135 99 52
207 108 240 126 33 18 98 52 145 76 47 25 130 68 185 97 55 30 147 78 205 109
58 30 109 59 115 63 14 13 58 11 80 -5z m-7230 -14281 l0 -7205 -40 0 c-59 -1
-2387 -1 -2407 0 -15 0 -16 490 -16 7205 l0 7205 1232 0 1231 0 0 -7205z
m4973 0 l0 -7205 -86 0 c-48 -1 -945 -2 -1993 -3 l-1906 -2 0 7208 0 7207
1993 0 1992 0 0 -7205z m3449 5 c0 -4442 -4 -7203 -10 -7207 -6 -4 -2368 -8
-2442 -4 -7 1 -10 2408 -10 7206 l0 7205 1231 0 1231 0 0 -7200z m4973 -5 l0
-7205 -40 0 c-52 -1 -3882 -1 -3918 0 l-27 0 1 7203 c1 3961 2 7203 3 7205 0
1 897 2 1991 2 l1990 0 0 -7205z m3450 0 c0 -5757 -3 -7205 -12 -7206 -7 0
-561 -1 -1231 -2 l-1217 -2 -1 30 c-1 40 -1 14356 0 14373 1 9 254 12 1231 12
l1230 0 0 -7205z m2208 -9530 l0 -1335 -11866 2 -11867 3 0 1333 0 1332 11866
0 11867 0 0 -1335z m4903 -2335 c3 -105 -1 -1263 -5 -1267 -4 -5 -33783 -8
-33867 -4 -14 1 -16 64 -16 641 0 563 2 640 15 642 9 2 7633 3 16944 3 15040
0 16928 -2 16929 -15z m-8841 -5751 c0 -1919 -3 -3488 -7 -3486 -5 2 -57 27
-118 56 -60 29 -117 57 -125 62 -8 5 -26 14 -40 20 -34 14 -151 70 -370 176
-102 50 -232 113 -290 141 -58 27 -186 89 -285 137 -99 48 -227 110 -285 137
-58 28 -187 90 -288 139 -101 49 -185 89 -187 89 -2 0 -45 20 -97 44 -51 24
-127 58 -168 76 -41 18 -102 45 -135 60 -92 42 -591 240 -604 240 -6 0 -19 5
-29 10 -19 11 -375 140 -387 140 -4 0 -21 6 -38 14 -18 7 -72 26 -122 41 -49
15 -133 41 -185 57 -108 34 -136 42 -310 93 -152 45 -230 64 -230 57 0 -2 -6
0 -12 6 -11 8 -294 82 -473 122 -27 7 -57 13 -65 15 -8 2 -60 13 -115 24 -55
12 -120 26 -145 31 -53 12 -75 16 -125 24 -20 4 -40 8 -44 10 -3 2 -26 7 -51
10 -25 3 -56 8 -70 11 -83 17 -251 47 -282 50 -43 5 -97 14 -118 20 -14 4 -37
7 -145 21 -27 3 -59 8 -70 10 -19 4 -47 7 -152 19 -27 3 -59 8 -73 10 -72 10
-111 15 -170 20 -135 11 -184 15 -209 20 -30 5 -153 14 -256 20 -38 2 -90 6
-115 9 -208 26 -952 37 -1405 22 -319 -11 -369 -13 -455 -20 -91 -8 -156 -13
-275 -22 -49 -3 -99 -8 -110 -10 -11 -2 -47 -6 -80 -9 -64 -5 -148 -13 -230
-21 -27 -2 -57 -7 -65 -9 -8 -2 -42 -7 -75 -10 -33 -3 -71 -8 -85 -10 -14 -2
-43 -6 -65 -10 -22 -3 -51 -7 -65 -10 -14 -2 -52 -6 -85 -10 -32 -4 -62 -8
-65 -10 -4 -2 -29 -7 -56 -10 -57 -7 -69 -9 -149 -24 -195 -34 -295 -53 -335
-61 -25 -5 -56 -12 -70 -14 -143 -26 -484 -102 -679 -152 -75 -20 -143 -37
-151 -39 -52 -12 -284 -76 -291 -81 -5 -3 -22 -7 -37 -10 -15 -3 -67 -18 -117
-33 -49 -16 -157 -51 -240 -77 -82 -26 -154 -49 -160 -50 -20 -4 -199 -67
-480 -169 -98 -35 -131 -48 -185 -69 -19 -8 -82 -33 -140 -56 -180 -71 -452
-189 -618 -266 -51 -24 -95 -44 -97 -44 -3 0 -82 -38 -177 -84 -309 -150 -491
-238 -598 -288 -99 -47 -307 -148 -570 -275 -63 -31 -180 -87 -260 -125 -139
-67 -367 -177 -382 -185 -5 -2 -8 1567 -8 3486 l0 3491 7925 0 7925 0 0 -3491z
m5523 -874 c141 -15 246 -48 377 -117 52 -28 97 -53 100 -57 3 -4 28 -23 55
-43 55 -39 144 -130 190 -193 17 -22 32 -42 35 -45 25 -25 116 -216 139 -290
57 -187 58 -426 5 -605 -19 -60 -73 -194 -88 -215 -6 -8 -20 -31 -30 -50 -11
-19 -22 -37 -26 -40 -3 -3 -17 -21 -29 -40 -39 -58 -181 -192 -256 -241 -59
-40 -188 -111 -205 -114 -3 0 -36 -10 -75 -22 -331 -100 -700 -33 -965 175
-54 43 -200 189 -200 201 0 5 -14 26 -31 47 -40 51 -112 200 -138 289 -31 108
-39 178 -36 325 3 153 7 188 35 282 94 313 345 582 648 694 37 14 74 27 82 31
8 3 24 7 35 9 11 1 34 5 50 8 17 4 64 9 105 12 41 4 77 8 78 9 4 3 44 0 145
-10z m-75 -2797 c13 -24 27 -50 32 -58 5 -8 45 -78 90 -155 44 -77 85 -147 90
-155 5 -8 18 -32 29 -52 11 -20 28 -46 37 -57 10 -11 30 -42 44 -68 15 -26 62
-108 105 -182 42 -74 85 -149 95 -165 9 -17 42 -74 72 -126 30 -52 66 -115 80
-140 14 -25 67 -117 118 -205 191 -331 284 -491 308 -535 13 -25 31 -52 38
-61 8 -8 14 -18 14 -21 0 -7 84 -155 332 -583 66 -113 74 -132 62 -145 -13
-13 -210 -15 -1595 -15 -1398 0 -1582 2 -1594 15 -12 13 -7 27 35 100 27 47
54 90 59 97 6 7 11 15 11 18 0 3 25 50 56 103 31 53 66 113 76 132 11 19 39
67 63 105 23 39 63 108 89 155 26 47 67 119 92 160 24 41 52 91 61 110 10 19
20 37 23 40 6 5 35 54 77 130 11 19 51 89 90 156 38 66 72 127 76 135 4 8 15
28 26 44 44 72 131 226 131 232 0 4 6 14 14 22 7 9 28 43 46 76 18 33 39 67
46 76 8 8 14 19 14 23 0 10 180 319 189 326 4 3 23 32 41 65 18 33 60 104 92
158 32 55 58 100 58 102 0 10 105 182 118 192 20 16 32 6 60 -49z"/>
</g>
</svg>
